<?xml version="1.0" encoding="utf-8"?>
<!-- Svg Vector Icons : http://www.onlinewebfonts.com/icon -->
<!DOCTYPE svg PUBLIC "-//W3C//DTD SVG 1.1//EN" "http://www.w3.org/Graphics/SVG/1.1/DTD/svg11.dtd">
<svg version="1.1" xmlns="http://www.w3.org/2000/svg" xmlns:xlink="http://www.w3.org/1999/xlink" x="0px" y="0px" viewBox="0 0 1000 1000" enable-background="new 0 0 1000 1000" xml:space="preserve">
<metadata> Svg Vector Icons : http://www.onlinewebfonts.com/icon </metadata>
<g><g transform="translate(0.000000,512.000000) scale(0.100000,-0.100000)"><path d="M4533.9,5008.6c-1140.3-115-2198.2-615.2-2999.3-1416.3C574.5,2630.3,55.1,1313.7,103-39.3c13.4-379.5,53.7-663.1,147.6-1034.9c92-364.1,176.3-597.9,354.5-958.2c207-423.5,437-768.5,732.1-1103.9c61.3-69,126.5-155.2,143.7-187.8c21.1-38.3,65.2-74.7,116.9-97.7c44.1-19.2,103.5-59.4,128.4-88.2c90.1-95.8,431.2-360.3,661.2-509.8c515.5-339.2,1071.3-571.1,1690.3-709.1c168.6-38.3,254.9-42.2,862.4-49.8c609.4-5.8,695.7-1.9,900.8,32.6c1761.2,302.8,3242.6,1588.7,3811.8,3309.7C9834.8-888.3,9898.1-482,9900,114c0,684.2-101.6,1217-346.9,1820.6c-201.2,492.5-555.8,1056-891.2,1418.2c-47.9,53.7-103.5,124.6-124.6,159.1c-19.2,34.5-65.2,82.4-101.6,105.4c-36.4,21.1-126.5,95.8-201.2,162.9C7529.3,4414.5,6619,4841.9,5666.5,4983.7C5430.8,5018.2,4771.5,5033.6,4533.9,5008.6z M5480.6,4385.8c607.5-69,1232.3-293.2,1763.2-630.5c197.4-124.6,505.9-354.5,530.8-394.8c7.7-13.4-197.4-231.9-482.9-517.4l-496.4-496.4l-9.6,178.2c-7.7,157.2-15.3,187.8-61.3,247.2c-63.2,84.3-197.4,139.9-285.5,122.7c-147.6-28.7-3198.6-1050.2-3240.8-1084.7c-116.9-90.1-113.1-40.2-111.2-1554.3V-1126l-84.3,49.8c-92,53.7-162.9,61.3-297.1,28.7c-308.6-70.9-569.2-341.1-634.4-663.1c-32.6-157.2-13.4-277.9,67.1-414l69-115l-207-208.9c-113.1-113.1-212.7-207-220.4-207c-23,0-212.7,245.3-350.7,450.4c-170.6,254.9-412,749.3-505.9,1038.7C789.1-763.7,710.6-282.7,710.6,121.7c0,1134.5,456.1,2238.4,1257.2,3037.6C2887.7,4081.1,4192.8,4537.2,5480.6,4385.8z M8361.1,2735.7c912.2-1144.1,1169-2604.5,707.2-3990.1c-113.1-335.4-222.3-573-385.2-845.1c-680.3-1128.8-1772.7-1864.7-3066.3-2064c-300.9-46-944.8-46-1217,0C3798-4060,3236.5-3837.8,2722.9-3502.4c-212.7,138-498.3,358.4-498.3,383.3c0,7.7,111.2,124.6,247.2,260.7l247.2,247.2l70.9-44.1c86.2-53.7,208.9-44.1,366,26.8c176.3,80.5,300.9,218.5,419.7,461.9c101.6,203.1,105.4,218.5,105.4,364.1v153.3L4926.8-403.5L6172.5,842.3V23.9v-818.3l-90.1,40.3c-218.5,95.8-569.2-36.4-772.3-293.2c-308.6-390.9-178.2-981.2,266.4-1203.5c421.6-210.8,850.9-65.2,1046.4,358.4c38.3,80.5,78.6,164.8,90.1,185.9c13.4,21.1,32.6,59.4,47.9,86.2c19.2,38.3,24.9,346.9,24.9,1561.9v1514l712.9,712.9c392.9,392.9,720.6,714.8,728.3,714.8C8234.6,2883.3,8295.9,2816.2,8361.1,2735.7z M6172.5,1994v-201.2l-1240-412l-1241.9-412l-5.8,184c-1.9,99.6,0,187.8,5.8,193.6c7.7,7.7,2433.9,835.6,2478,845.2C6170.6,2193.4,6172.5,2103.3,6172.5,1994z M5290.9,846.1c0-1.9-362.2-366-804.9-808.8l-804.9-804.9v540.4v538.5l801.1,268.3c438.9,147.6,801.1,270.2,804.9,270.2C5289,851.8,5290.9,849.9,5290.9,846.1z M6057.5-1342.5c141.8-72.8,151.4-295.1,17.3-366.1c-109.2-55.6-249.2-21.1-297.1,70.9c-34.5,69-34.5,120.7,3.8,201.2C5835.2-1325.3,5948.3-1287,6057.5-1342.5z"/></g></g>
</svg>