<?xml version="1.0" encoding="utf-8"?>
<!-- Svg Vector Icons : http://www.onlinewebfonts.com/icon -->
<!DOCTYPE svg PUBLIC "-//W3C//DTD SVG 1.1//EN" "http://www.w3.org/Graphics/SVG/1.1/DTD/svg11.dtd">
<svg version="1.1" xmlns="http://www.w3.org/2000/svg" xmlns:xlink="http://www.w3.org/1999/xlink" x="0px" y="0px" viewBox="0 0 1000 1000" enable-background="new 0 0 1000 1000" xml:space="preserve">
<metadata> Svg Vector Icons : http://www.onlinewebfonts.com/icon </metadata>
<g><g transform="translate(0.000000,512.000000) scale(0.100000,-0.100000)"><path  d="M4257.3,4987.7c-502.5-76.7-964.8-224.4-1442.4-462.3c-500.6-247.4-901.5-539-1300.5-941.8c-400.9-402.8-663.7-773-918.8-1290.9C353.9,1801.7,204.3,1310.6,123.7,739c-30.7-228.3-32.6-985.9,0-1208.4c188-1317.8,801.8-2418.8,1803-3235.9c364.4-299.2,938-625.3,1392.6-792.2c249.4-92.1,709.7-207.2,999.4-251.3c322.2-49.9,1039.6-49.9,1361.9,0c1064.6,161.1,2012.1,634.9,2764,1383c272.4,270.4,441.2,473.8,629.2,757.7c429.6,644.5,686.7,1329.3,801.8,2138.7c32.6,226.3,32.6,982.1,0,1208.4c-82.5,581.2-228.3,1060.7-471.9,1553.7c-260.9,525.6-514.1,884.2-918.8,1292.8C7721.5,4356.6,6772,4836.1,5688.3,4995.3C5389,5039.5,4573.8,5035.6,4257.3,4987.7z M5392.9,4412.2c1795.4-165,3308.8-1446.3,3761.5-3184.1c598.5-2297.9-778.8-4668.7-3061.3-5263.4c-410.5-107.4-642.6-136.2-1102.9-134.3c-456.5,0-663.7,25-1083.7,134.3C1888.4-3509.7,530.4-1566.6,722.2,528c76.7,832.5,406.7,1651.5,930.3,2301.8c155.4,195.7,475.7,514.1,661.8,663.7C3167.8,4174.4,4299.5,4512,5392.9,4412.2z"/><path  d="M6783.5,2981.3c-90.2-36.4-870.8-299.2-1735.9-583.1c-865.1-283.9-1620.8-533.2-1678.4-552.4l-105.5-36.5L3258,359.2l-3.8-1448.2l-95.9,30.7c-195.7,61.4-508.3-44.1-698.2-235.9c-446.9-454.6-234-1175.8,397.1-1344.6c280-74.8,600.4,19.2,794.1,228.2c92.1,99.8,141.9,191.8,186.1,337.6c26.9,92.1,30.7,253.2,30.7,1260.2V342l82.5,30.7c44.1,17.3,585,197.6,1202.7,402.8c617.6,205.2,1137.5,379.8,1156.6,385.6c30.7,13.4,32.6-40.3,32.6-955.2v-970.6l-80.6,36.5c-99.8,46-182.2,47.9-331.8,7.7c-283.9-72.9-498.7-293.5-577.4-592.7c-72.9-272.4,13.4-585,220.6-792.2c366.4-366.4,991.7-280.1,1262.1,170.7c126.6,211,120.8,92.1,117,2658.5l-5.8,2322.9L6783.5,2981.3z M6342.3,2006.9v-199.5L5105.1,1395L3866,980.7l5.8,193.7l5.7,191.8l1227.6,420.1c675.2,230.2,1229.5,418.1,1233.4,418.1C6340.4,2206.4,6342.3,2116.2,6342.3,2006.9z M6244.5-1351.8c105.5-53.7,124.7-216.7,36.4-310.7c-86.3-92.1-259-72.9-312.7,34.5c-74.8,142,5.8,305,145.8,305C6156.3-1323,6215.8-1336.4,6244.5-1351.8z M3154.4-1660.6c111.3-76.7,132.4-245.5,44.1-335.7c-90.2-88.2-259-67.1-335.7,44.1C2751.6-1792.9,2995.2-1549.3,3154.4-1660.6z"/></g></g>
</svg>